<?xml version="1.0" encoding="UTF-8"?>
<svg width="42px" height="40px" viewBox="0 0 42 40" version="1.1" xmlns="http://www.w3.org/2000/svg" xmlns:xlink="http://www.w3.org/1999/xlink">
    <title>9C693A3D-15BF-493E-A88B-6D4E27087CE7</title>
    <g id="Page-1" stroke="none" stroke-width="1" fill="none" fill-rule="evenodd">
        <g id="5.11_Locked-Price_icons" transform="translate(-223.000000, -609.000000)">
            <g id="Education" transform="translate(223.000000, 609.000000)">
                <rect id="Rectangle" x="0" y="0" width="42" height="40"></rect>
                <path d="M37.4208145,3.4 C37.8626423,3.4 38.2626423,3.5790861 38.5521853,3.86862915 C38.8417284,4.1581722 39.0208145,4.5581722 39.0208145,5 L39.0208145,5 L39.0208145,29.6769231 L2.93846154,29.6769231 L2.93846154,5 C2.93846154,4.5581722 3.11754764,4.1581722 3.40709069,3.86862915 C3.69663374,3.5790861 4.09663374,3.4 4.53846154,3.4 L4.53846154,3.4 L37.4208145,3.4 Z" id="Rectangle" stroke="#37474F" stroke-width="0.8"></path>
                <path d="M41.3229376,29.6307692 C41.2238202,31.2302722 40.5343531,32.669932 39.4697896,33.7344955 C38.3171856,34.8870996 36.7248779,35.6 34.9660633,35.6 L34.9660633,35.6 L6.76923077,35.6 C5.01041626,35.6 3.41810857,34.8870996 2.2655045,33.7344955 C1.20094102,32.669932 0.511473932,31.2302722 0.412356554,29.6307692 L0.412356554,29.6307692 Z" id="Rectangle" stroke="#37474F" stroke-width="0.8" fill="#FFD700"></path>
                <path d="M14.8574661,30.0769231 L15.4756958,31.9316124 C15.6118099,32.3399545 15.9939487,32.6153846 16.4243791,32.6153846 L24.290553,32.6153846 C24.7209834,32.6153846 25.1031222,32.3399545 25.2392363,31.9316124 L25.8574661,30.0769231 L25.8574661,30.0769231" id="Path-5" stroke="#37474F" stroke-linecap="round"></path>
                <g id="Group-32" transform="translate(7.242081, 8.076923)" stroke="#37474F" stroke-width="0.8">
                    <path d="M13.5384615,2.53846154 L13.5384615,18.6153846 C12.974359,17.4871795 11.8461538,16.9230769 10.1538462,16.9230769 C8.46153846,16.9230769 5.07692308,16.9230769 -1.40256434e-12,16.9230769 L-1.40256434e-12,-3.86200875e-13 L11,-3.86200875e-13 C12.4019536,-3.85927238e-13 13.5384615,1.13650794 13.5384615,2.53846154 L13.5384615,2.53846154 L13.5384615,2.53846154 Z" id="Path-6" fill="#40C4FF" stroke-linejoin="round"></path>
                    <path d="M27.0769231,2.53846154 L27.0769231,18.6153846 C26.5128205,17.4871795 25.3846154,16.9230769 23.6923077,16.9230769 C22,16.9230769 18.6153846,16.9230769 13.5384615,16.9230769 L13.5384615,-3.86200875e-13 L24.5384615,-3.86200875e-13 C25.9404151,-3.85927238e-13 27.0769231,1.13650794 27.0769231,2.53846154 L27.0769231,2.53846154 L27.0769231,2.53846154 Z" id="Path-6" fill="#40C4FF" stroke-linejoin="round" transform="translate(20.307692, 9.307692) scale(-1, 1) translate(-20.307692, -9.307692) "></path>
                    <g id="Group-20" transform="translate(2.538462, 3.384615)" stroke-linecap="round">
                        <line x1="0.423076923" y1="0.423076923" x2="8.03846154" y2="0.423076923" id="Line-4"></line>
                        <line x1="0.423076923" y1="2.96153846" x2="8.03846154" y2="2.96153846" id="Line-4"></line>
                        <line x1="0.423076923" y1="5.5" x2="8.03846154" y2="5.5" id="Line-4"></line>
                        <line x1="0.423076923" y1="8.03846154" x2="8.03846154" y2="8.03846154" id="Line-4"></line>
                        <line x1="0.423076923" y1="10.5769231" x2="8.03846154" y2="10.5769231" id="Line-4"></line>
                    </g>
                    <g id="Group-20" transform="translate(15.230769, 3.384615)" stroke-linecap="round">
                        <line x1="0.423076923" y1="0.423076923" x2="8.03846154" y2="0.423076923" id="Line-4"></line>
                        <line x1="0.423076923" y1="2.96153846" x2="8.03846154" y2="2.96153846" id="Line-4"></line>
                        <line x1="0.423076923" y1="5.5" x2="8.03846154" y2="5.5" id="Line-4"></line>
                        <line x1="0.423076923" y1="8.03846154" x2="8.03846154" y2="8.03846154" id="Line-4"></line>
                        <line x1="0.423076923" y1="10.5769231" x2="8.03846154" y2="10.5769231" id="Line-4"></line>
                    </g>
                </g>
            </g>
        </g>
    </g>
</svg>