<?xml version="1.0" encoding="UTF-8"?>
<svg width="42px" height="41px" viewBox="0 0 42 41" version="1.1" xmlns="http://www.w3.org/2000/svg" xmlns:xlink="http://www.w3.org/1999/xlink">
    <title>8198031F-3883-48D3-8753-4513CD00FFF2</title>
    <g id="Page-1" stroke="none" stroke-width="1" fill="none" fill-rule="evenodd">
        <g id="5.11_Locked-Price_icons" transform="translate(-440.000000, -607.000000)">
            <g id="Healthcare" transform="translate(440.000000, 607.000000)">
                <rect id="Rectangle" x="0" y="1" width="42" height="40"></rect>
                <g id="Group" transform="translate(5.000000, 0.500000)" fill="#37474F" fill-rule="nonzero">
                    <path d="M27.1238767,2.16991014 L24.2306632,2.16991014 C24.0311191,2.16991014 23.8690115,2.00780257 23.8690115,1.80825845 C23.8690115,1.60871433 24.0311191,1.44660676 24.2306632,1.44660676 L27.1238767,1.44660676 C27.3234209,1.44660676 27.4855284,1.60871433 27.4855284,1.80825845 C27.4855284,2.00780257 27.3234209,2.16991014 27.1238767,2.16991014 Z" id="Path"></path>
                    <path d="M25.67727,3.6165169 C25.4777258,3.6165169 25.3156183,3.45440933 25.3156183,3.25486521 L25.3156183,0.36165169 C25.3156183,0.162107567 25.4777258,0 25.67727,0 C25.8768141,0 26.0389217,0.162107567 26.0389217,0.36165169 L26.0389217,3.25486521 C26.0389217,3.45440933 25.8768141,3.6165169 25.67727,3.6165169 Z" id="Path"></path>
                    <path d="M32.1870004,6.8713821 L29.2937869,6.8713821 C29.0942427,6.8713821 28.9321352,6.70927454 28.9321352,6.50973042 C28.9321352,6.31018629 29.0942427,6.14807873 29.2937869,6.14807873 L32.1870004,6.14807873 C32.3865445,6.14807873 32.5486521,6.31018629 32.5486521,6.50973042 C32.5486521,6.70927454 32.3865445,6.8713821 32.1870004,6.8713821 Z" id="Path"></path>
                    <path d="M30.7403936,8.31798886 C30.5408495,8.31798886 30.3787419,8.1558813 30.3787419,7.95633717 L30.3787419,5.06312366 C30.3787419,4.86357953 30.5408495,4.70147197 30.7403936,4.70147197 C30.9399377,4.70147197 31.1020453,4.86357953 31.1020453,5.06312366 L31.1020453,7.95633717 C31.1020453,8.1558813 30.9399377,8.31798886 30.7403936,8.31798886 Z" id="Path"></path>
                    <path d="M14.4660676,5.78642704 L10.8495507,5.78642704 C10.6500066,5.78642704 10.487899,5.62431947 10.487899,5.42477535 L10.487899,3.6165169 C10.487899,3.41697277 10.6493002,3.25486521 10.8495507,3.25486521 L14.4660676,3.25486521 C14.6656117,3.25486521 14.8277193,3.41697277 14.8277193,3.6165169 L14.8277193,5.42477535 C14.8277193,5.62431947 14.6656117,5.78642704 14.4660676,5.78642704 Z M11.2112024,5.06312366 L14.1044159,5.06312366 L14.1044159,3.97816859 L11.2112024,3.97816859 L11.2112024,5.06312366 Z" id="Shape"></path>
                    <path d="M14.4660676,24.5923149 L10.8495507,24.5923149 C10.6500066,24.5923149 10.487899,24.4302073 10.487899,24.2306632 L10.487899,22.0607531 C10.487899,21.861209 10.6500066,21.6991014 10.8495507,21.6991014 L14.4660676,21.6991014 C14.6656117,21.6991014 14.8277193,21.861209 14.8277193,22.0607531 L14.8277193,24.2306632 C14.8277193,24.4302073 14.6656117,24.5923149 14.4660676,24.5923149 Z M11.2112024,23.8690115 L14.1044159,23.8690115 L14.1044159,22.4224048 L11.2112024,22.4224048 L11.2112024,23.8690115 Z" id="Shape"></path>
                    <path d="M31.463697,39.7816859 L1.08495507,39.7816859 C0.486675764,39.7816859 0,39.2950101 0,38.6967308 L0,37.250124 C0,36.6518447 0.486675764,36.165169 1.08495507,36.165169 L31.463697,36.165169 C32.0619763,36.165169 32.5486521,36.6518447 32.5486521,37.250124 L32.5486521,38.6967308 C32.5486521,39.2950101 32.0619763,39.7816859 31.463697,39.7816859 Z M1.08495507,36.8884724 C0.885410947,36.8884724 0.723303379,37.0512862 0.723303379,37.250124 L0.723303379,38.6967308 C0.723303379,38.8955686 0.885410947,39.0583825 1.08495507,39.0583825 L31.463697,39.0583825 C31.6632411,39.0583825 31.8253487,38.8955686 31.8253487,38.6967308 L31.8253487,37.250124 C31.8253487,37.0512862 31.6632411,36.8884724 31.463697,36.8884724 L1.08495507,36.8884724 Z" id="Shape"></path>
                </g>
                <path d="M24.1675396,14.7427642 C24.1675396,16.3405301 22.8720919,17.6359777 21.274326,17.6359777 C19.6765602,17.6359777 18.3811125,16.3405301 18.3811125,14.7427642 C18.3811125,13.1449983 19.6765602,11.8495507 21.274326,11.8495507 C22.8720919,11.8495507 24.1675396,13.1449983 24.1675396,14.7427642 Z" id="Path" fill="#40C4FF" fill-rule="nonzero"></path>
                <path d="M21.274326,17.9976294 C19.4798415,17.9976294 18.0194608,16.5372488 18.0194608,14.7427642 C18.0194608,12.9482796 19.4798415,11.487899 21.274326,11.487899 C23.0688106,11.487899 24.5291912,12.9482796 24.5291912,14.7427642 C24.5291912,16.5372488 23.0688106,17.9976294 21.274326,17.9976294 Z M21.274326,12.2112024 C19.8782234,12.2112024 18.7427642,13.3466616 18.7427642,14.7427642 C18.7427642,16.1388669 19.8782234,17.274326 21.274326,17.274326 C22.6704287,17.274326 23.8058879,16.1388669 23.8058879,14.7427642 C23.8058879,13.3466616 22.6704287,12.2112024 21.274326,12.2112024 Z" id="Shape" fill="#37474F" fill-rule="nonzero"></path>
                <path d="M16.9345058,14.7427642 C16.9345058,12.3457622 18.877324,10.4029439 21.274326,10.4029439 L21.274326,8.23303379 C21.274326,7.23425354 20.4648478,6.42477535 19.4660676,6.42477535 L15.8495507,6.42477535 C14.8507704,6.42477535 14.0412922,7.23425354 14.0412922,8.23303379 L14.0412922,21.2524946 C14.0412922,22.2512749 14.8507704,23.0607531 15.8495507,23.0607531 L19.4660676,23.0607531 C20.4648478,23.0607531 21.274326,22.2512749 21.274326,21.2524946 L21.274326,19.0825845 C18.877324,19.0825845 16.9345058,17.1397662 16.9345058,14.7427642 Z" id="Path" fill="#FFD700" fill-rule="nonzero"></path>
                <path d="M19.4660676,23.4224048 L15.8495507,23.4224048 C14.6533453,23.4224048 13.6796406,22.4487 13.6796406,21.2524946 L13.6796406,8.23303379 C13.6796406,7.03682843 14.6533453,6.06312366 15.8495507,6.06312366 L19.4660676,6.06312366 C20.662273,6.06312366 21.6359777,7.03682843 21.6359777,8.23303379 L21.6359777,10.4029439 C21.6359777,10.6024881 21.4738702,10.7645956 21.274326,10.7645956 C21.0747819,10.7645956 20.9126743,10.6024881 20.9126743,10.4029439 L20.9126743,8.23303379 C20.9126743,7.43521037 20.263891,6.78642704 19.4660676,6.78642704 L15.8495507,6.78642704 C15.0517273,6.78642704 14.4029439,7.43521037 14.4029439,8.23303379 L14.4029439,21.2524946 C14.4029439,22.0503181 15.0517273,22.6991014 15.8495507,22.6991014 L19.4660676,22.6991014 C20.263891,22.6991014 20.9126743,22.0503181 20.9126743,21.2524946 L20.9126743,19.0825845 C20.9126743,18.8830404 21.0747819,18.7209328 21.274326,18.7209328 C21.4738702,18.7209328 21.6359777,18.8830404 21.6359777,19.0825845 L21.6359777,21.2524946 C21.6359777,22.4487 20.662273,23.4224048 19.4660676,23.4224048 Z" id="Path" fill="#37474F" fill-rule="nonzero"></path>
                <path d="M22.7209328,36.4418656 C22.5213887,36.4418656 22.3592811,36.279758 22.3592811,36.0802139 L22.3592811,33.5486521 L20.189371,33.5486521 L20.189371,36.0802139 C20.189371,36.279758 20.0272634,36.4418656 19.8277193,36.4418656 C19.6281752,36.4418656 19.4660676,36.279758 19.4660676,36.0802139 L19.4660676,33.1870004 C19.4660676,32.9874563 19.6281752,32.8253487 19.8277193,32.8253487 L22.7209328,32.8253487 C22.9204769,32.8253487 23.0825845,32.9874563 23.0825845,33.1870004 L23.0825845,36.0802139 C23.0825845,36.279758 22.9204769,36.4418656 22.7209328,36.4418656 Z" id="Path" fill="#37474F" fill-rule="nonzero"></path>
                <path d="M21.274326,8.59468548 L14.0412922,8.59468548 C13.8417481,8.59468548 13.6796406,8.43257792 13.6796406,8.23303379 C13.6796406,8.03348967 13.8417481,7.8713821 14.0412922,7.8713821 L21.274326,7.8713821 C21.4738702,7.8713821 21.6359777,8.03348967 21.6359777,8.23303379 C21.6359777,8.43257792 21.4738702,8.59468548 21.274326,8.59468548 Z" id="Path" fill="#37474F" fill-rule="nonzero"></path>
                <path d="M21.274326,21.6141463 L14.0412922,21.6141463 C13.8417481,21.6141463 13.6796406,21.4520387 13.6796406,21.2524946 C13.6796406,21.0529505 13.8417481,20.8908429 14.0412922,20.8908429 L21.274326,20.8908429 C21.4738702,20.8908429 21.6359777,21.0529505 21.6359777,21.2524946 C21.6359777,21.4520387 21.4738702,21.6141463 21.274326,21.6141463 Z" id="Path" fill="#37474F" fill-rule="nonzero"></path>
                <path d="M24.8908429,33.5486521 L14.0412922,33.5486521 C13.8417481,33.5486521 13.6796406,33.3865445 13.6796406,33.1870004 L13.6796406,31.0170902 C13.6796406,30.8175461 13.8417481,30.6554386 14.0412922,30.6554386 L24.8908429,30.6554386 C28.8792536,30.6554386 32.1238767,27.4108154 32.1238767,23.4224048 C32.1238767,19.6649708 29.1865163,16.4998122 25.4368522,16.217625 C25.2380145,16.2024384 25.0882681,16.0286761 25.1034545,15.8298384 C25.1179348,15.6310006 25.2938161,15.4791351 25.4912412,15.4957343 C29.6163308,15.8068819 32.8471801,19.2881327 32.8471801,23.4224048 C32.8471801,27.8091974 29.2776355,31.3787419 24.8908429,31.3787419 L14.4029439,31.3787419 L14.4029439,32.8253487 L24.8908429,32.8253487 C30.075459,32.8253487 34.2937869,28.6070208 34.2937869,23.4224048 C34.2937869,18.4641742 30.4123883,14.3465014 25.4580428,14.0484212 C25.2581454,14.0360601 25.1062799,13.8654763 25.1186411,13.6659322 C25.1310023,13.4667412 25.3125344,13.3078122 25.5014833,13.3265306 C30.8372584,13.6468607 35.0170902,18.0816852 35.0170902,23.4224048 C35.0170902,29.0064623 30.4749004,33.5486521 24.8908429,33.5486521 Z" id="Path" fill="#37474F" fill-rule="nonzero"></path>
                <path d="M11.1480787,17.8168036 C10.9485346,17.8168036 10.786427,17.654696 10.786427,17.4551519 L10.786427,9.13716302 C10.786427,8.9376189 10.9485346,8.77551133 11.1480787,8.77551133 C11.3476228,8.77551133 11.5097304,8.9376189 11.5097304,9.13716302 L11.5097304,17.4551519 C11.5097304,17.654696 11.3476228,17.8168036 11.1480787,17.8168036 Z" id="Path" fill="#37474F" fill-rule="nonzero"></path>
                <path d="M11.1480787,20.7100171 C10.9485346,20.7100171 10.786427,20.5479095 10.786427,20.3483654 L10.786427,18.9017586 C10.786427,18.7022145 10.9485346,18.540107 11.1480787,18.540107 C11.3476228,18.540107 11.5097304,18.7022145 11.5097304,18.9017586 L11.5097304,20.3483654 C11.5097304,20.5479095 11.3476228,20.7100171 11.1480787,20.7100171 Z" id="Path" fill="#37474F" fill-rule="nonzero"></path>
            </g>
        </g>
    </g>
</svg>