<?xml version="1.0" encoding="UTF-8"?>
<svg width="43px" height="40px" viewBox="0 0 43 40" version="1.1" xmlns="http://www.w3.org/2000/svg" xmlns:xlink="http://www.w3.org/1999/xlink">
    <title>5063932D-C0B7-47E8-AB3B-9D9F5CAB0A75</title>
    <g id="Page-1" stroke="none" stroke-width="1" fill="none" fill-rule="evenodd">
        <g id="5.11_Locked-Price_icons" transform="translate(-657.000000, -608.000000)">
            <g id="Socials" transform="translate(657.000000, 608.000000)">
                <rect id="Rectangle" x="0" y="0" width="42" height="40"></rect>
                <g id="Likes" transform="translate(7.000000, 11.000000)" fill-rule="nonzero">
                    <path d="M1.77171403,15.2182601 L4.04990202,15.2182601 C4.68777996,15.2182601 5.18896976,14.7170703 5.18896976,14.0791923 L5.18896976,8.15588256 C5.18896976,7.51800462 4.68777996,7.01681481 4.04990202,7.01681481 L1.77171403,7.01681481 C1.13383609,7.01681481 0.632646277,7.51800462 0.632646277,8.15588256 L0.632646277,14.0791398 C0.678156495,14.7170703 1.1793463,15.2182601 1.77171403,15.2182601 Z" id="Path" fill="#249FD7"></path>
                    <path d="M4.05032195,15.4460736 L1.77213396,15.4460736 C1.0599804,15.4460736 0.459896417,14.8528135 0.405672592,14.0950973 L0.405200168,8.15588256 C0.405200168,7.38950518 1.00570409,6.78894877 1.77213396,6.78894877 L4.05032195,6.78894877 C4.81669933,6.78894877 5.41725574,7.38945269 5.41725574,8.15588256 L5.41725574,14.0791398 C5.41725574,14.8459896 4.81669933,15.4460736 4.05032195,15.4460736 Z M1.77213396,7.24462836 C1.26091825,7.24462836 0.860879759,7.64466685 0.860879759,8.15588256 L0.860879759,14.0791398 C0.897308931,14.5826393 1.29781985,14.990394 1.77213396,14.990394 L4.05032195,14.990394 C4.56153765,14.990394 4.96157615,14.5898831 4.96157615,14.0791398 L4.96157615,8.15588256 C4.96157615,7.64466685 4.56153765,7.24462836 4.05032195,7.24462836 L1.77213396,7.24462836 L1.77213396,7.24462836 Z" id="Shape" fill="#37474F"></path>
                    <path d="M19.0858588,8.20144527 C19.0858588,7.56356733 18.584669,7.06237752 17.946791,7.06237752 C18.584669,7.06237752 19.0858588,6.56118771 19.0858588,5.92330977 C19.0858588,5.28543183 18.584669,4.78424202 17.946791,4.78424202 L12.9347879,4.78424202 L12.9347879,1.36693379 C12.9347879,0.729055851 12.4335981,0.227866041 11.7957202,0.227866041 L11.3400931,0.227866041 C10.9300287,0.227866041 10.5199643,0.455679591 10.3377135,0.865743981 L9.51758469,2.50605403 C8.78858133,3.96411324 7.60389838,5.10318099 6.10032895,5.74105893 L5.23463746,6.15112332 L5.23463746,12.5300077 L7.14832377,13.3501365 C8.01401526,13.7146382 8.92532195,13.896889 9.83657615,13.896889 L17.9924587,13.896889 C18.6303366,13.896889 19.1315265,13.3956992 19.1315265,12.7578212 C19.1315265,12.1199433 18.6303366,11.6187535 17.9924587,11.6187535 C18.6303366,11.6187535 19.1315265,11.1175637 19.1315265,10.4796858 C19.1315265,9.84180781 18.6303366,9.340618 17.9924587,9.340618 C18.584669,9.34056551 19.0858588,8.7937605 19.0858588,8.20144527 Z" id="Path" fill="#FFFFFF"></path>
                    <path d="M17.9923537,14.1247025 L9.83647116,14.1247025 C8.88416853,14.1247025 7.95013298,13.934683 7.05982293,13.5601554 L5.14477184,12.7395542 C5.06094275,12.7035449 5.00671892,12.6215531 5.00671892,12.5304276 L5.00671892,6.15154325 C5.00671892,6.06361982 5.05732083,5.98341265 5.13705557,5.9456187 L6.00274706,5.53555431 C7.45529465,4.91909295 8.59714446,3.83787094 9.31386478,2.40443029 L10.1339936,0.764120241 C10.3385533,0.303453947 10.8138123,0 11.340513,0 L11.7961401,0 C12.5629899,0 13.1630739,0.600503919 13.1630739,1.36693379 L13.1630739,4.55637598 L17.9472634,4.55637598 C18.7141132,4.55637598 19.3141972,5.1568799 19.3141972,5.92330977 C19.3141972,6.40402786 19.0777226,6.81955137 18.7127485,7.06237752 C19.0781425,7.30525616 19.3141972,7.72077968 19.3141972,8.20144527 C19.3141972,8.65297802 19.0768302,9.06986632 18.7291783,9.32140608 C19.1110022,9.56108273 19.3597599,9.98573978 19.3597599,10.4796333 C19.3597599,10.9603513 19.1232853,11.3758749 18.7583112,11.618701 C19.1237052,11.8615796 19.3597599,12.2771032 19.3597599,12.7577688 C19.359235,13.5246711 18.7592035,14.1247025 17.9923537,14.1247025 Z M5.46234602,12.3796193 L7.23797942,13.1405375 C8.07044373,13.490919 8.94526876,13.6690754 9.83647116,13.6690754 L17.9923537,13.6690754 C18.503097,13.6690754 18.9036079,13.2685645 18.9036079,12.7578212 C18.9036079,12.2466055 18.503097,11.846567 17.9923537,11.846567 C17.8665838,11.846567 17.7645402,11.7445234 17.7645402,11.6187535 C17.7645402,11.4929836 17.8665838,11.3909399 17.9923537,11.3909399 C18.503097,11.3909399 18.9036079,10.9909015 18.9036079,10.4796858 C18.9036079,9.96847004 18.503097,9.56843155 17.9923537,9.56843155 C17.8665838,9.56843155 17.7645402,9.46638788 17.7645402,9.340618 C17.7645402,9.21484812 17.8665838,9.11280445 17.9923537,9.11280445 C18.4452513,9.11280445 18.8580452,8.67859392 18.8580452,8.20155025 C18.8580452,7.69033455 18.4575343,7.29029605 17.946791,7.29029605 C17.8210211,7.29029605 17.7189775,7.18825238 17.7189775,7.0624825 C17.7189775,6.93671263 17.8210211,6.83466895 17.946791,6.83466895 C18.4575343,6.83466895 18.8580452,6.43463046 18.8580452,5.92341475 C18.8580452,5.41219905 18.4575343,5.01216055 17.946791,5.01216055 L12.9347879,5.01216055 C12.8090181,5.01216055 12.7069744,4.91011688 12.7069744,4.784347 L12.7069744,1.36693379 C12.7069744,0.855718085 12.3064635,0.455679591 11.7957202,0.455679591 L11.3400931,0.455679591 C10.993806,0.455679591 10.6816909,0.652995521 10.5463676,0.958234183 L9.72167203,2.6080977 C8.95576708,4.13948768 7.73465496,5.29545773 6.18956467,5.95107783 L5.46234602,6.29552772 L5.46234602,12.3796193 Z" id="Shape" fill="#37474F"></path>
                    <path d="M6.46519807,6.83456397 C6.37680221,6.83456397 6.29297312,6.78306971 6.25607153,6.69698348 C6.20641447,6.58171193 6.25927352,6.44775336 6.3750175,6.39762388 C8.01301792,5.68909225 9.34803681,4.43291573 10.134466,2.85958497 L11.0015223,1.17145507 C11.0589481,1.0593855 11.197001,1.01607993 11.3081782,1.07303331 C11.4198278,1.13045913 11.4644457,1.26803961 11.4065999,1.37968925 L10.540856,3.06550952 C9.70797172,4.73222284 8.2918533,6.0649846 6.55585106,6.81540454 C6.52582587,6.82863242 6.49527576,6.83456397 6.46519807,6.83456397 Z" id="Path" fill="#FFFFFF"></path>
                    <path d="M18.6302317,13.6690754 C18.4479808,13.8057636 18.2201673,13.896889 17.946791,13.896889 L9.79090845,13.896889 C8.87965426,13.896889 7.96834756,13.7146382 7.10265608,13.3501365 L5.23453247,12.5300077 L5.23453247,14.3525686 L7.14821878,15.1726974 C8.01391027,15.537199 8.92521697,15.7194499 9.83647116,15.7194499 L17.9923537,15.7194499 C18.6302317,15.7194499 19.1314215,15.2182601 19.1314215,14.5803821 C19.0858588,14.1702653 18.9036079,13.8513263 18.6302317,13.6690754 Z" id="Path" fill="#249FD7"></path>
                    <path d="M17.9923537,15.9472634 L9.83647116,15.9472634 C8.88416853,15.9472634 7.95013298,15.7572438 7.05982293,15.3827163 L5.14477184,14.5621151 C5.06094275,14.5261058 5.00671892,14.4436415 5.00671892,14.3525161 L5.00671892,12.5299552 C5.00671892,12.45295 5.04545773,12.381404 5.11012738,12.3395157 C5.1743771,12.2966825 5.25594905,12.290751 5.32655025,12.3213011 L7.19467385,13.1414299 C8.02482853,13.490919 8.89965356,13.6690754 9.79090845,13.6690754 L17.946791,13.6690754 C18.1477289,13.6690754 18.3322368,13.6075553 18.4935435,13.4868246 C18.5714411,13.4289789 18.6766867,13.4266692 18.7564215,13.4795283 C19.0917903,13.7037199 19.3054836,14.0855438 19.357402,14.5552912 C19.359235,15.3471795 18.7592035,15.9472634 17.9923537,15.9472634 Z M5.46234602,14.2021802 L7.23797942,14.9630984 C8.07044373,15.3139523 8.94526876,15.4916363 9.83647116,15.4916363 L17.9923537,15.4916363 C18.503097,15.4916363 18.9036079,15.0911254 18.9036079,14.5803821 C18.874895,14.3274776 18.7737437,14.1042308 18.6165314,13.9502205 C18.4123915,14.0659644 18.1882524,14.1247025 17.9472109,14.1247025 L9.79132839,14.1247025 C8.83902576,14.1247025 7.9049902,13.934683 7.01468015,13.5601554 L5.46276596,12.8789719 L5.46276596,14.2021277 L5.46234602,14.2021277 L5.46234602,14.2021802 Z" id="Shape" fill="#37474F"></path>
                    <path d="M1.77171403,13.3956992 L4.04990202,13.3956992 C4.68777996,13.3956992 5.18896976,12.8945094 5.18896976,12.2566314 L5.18896976,6.33332167 C5.18896976,5.69544373 4.68777996,5.19425392 4.04990202,5.19425392 L1.77171403,5.19425392 C1.13383609,5.19425392 0.632646277,5.69544373 0.632646277,6.33332167 L0.632646277,12.2565789 C0.678156495,12.8945094 1.1793463,13.3956992 1.77171403,13.3956992 Z" id="Path" fill="#40C4FF"></path>
                    <g id="Group" transform="translate(0.358483, 4.934211)" fill="#37474F">
                        <path d="M3.69183931,8.68930221 L1.41365132,8.68930221 C0.70149776,8.68930221 0.101413774,8.09604213 0.0471899496,7.33832587 L0.0467175252,1.39911114 C0.0467175252,0.632733763 0.647221445,0.0321773516 1.41365132,0.0321773516 L3.69183931,0.0321773516 C4.45821669,0.0321773516 5.0587731,0.632681271 5.0587731,1.39911114 L5.0587731,7.32236842 C5.0587731,8.08921823 4.45821669,8.68930221 3.69183931,8.68930221 Z M1.41365132,0.487856943 C0.90243561,0.487856943 0.502397116,0.887895437 0.502397116,1.39911114 L0.502397116,7.32236842 C0.538826288,7.82628779 0.939337206,8.23362262 1.41365132,8.23362262 L3.69183931,8.23362262 C4.20305501,8.23362262 4.60309351,7.8331117 4.60309351,7.32236842 L4.60309351,1.39911114 C4.60309351,0.887895437 4.20305501,0.487856943 3.69183931,0.487856943 L1.41365132,0.487856943 Z" id="Shape"></path>
                        <path d="M17.6338711,2.35598054 L16.2669373,2.35598054 C16.1411674,2.35598054 16.0391237,2.25393687 16.0391237,2.12816699 C16.0391237,2.00239712 16.1411674,1.90035344 16.2669373,1.90035344 L17.6338711,1.90035344 C17.759641,1.90035344 17.8616846,2.00239712 17.8616846,2.12816699 C17.8616846,2.25388438 17.7600609,2.35598054 17.6338711,2.35598054 Z" id="Path"></path>
                        <path d="M17.6338711,4.63416853 L16.2669373,4.63416853 C16.1411674,4.63416853 16.0391237,4.53212486 16.0391237,4.40635498 C16.0391237,4.28058511 16.1411674,4.17854143 16.2669373,4.17854143 L17.6338711,4.17854143 C17.759641,4.17854143 17.8616846,4.28058511 17.8616846,4.40635498 C17.8616846,4.53212486 17.7600609,4.63416853 17.6338711,4.63416853 Z" id="Path"></path>
                        <path d="M17.6338711,6.91230403 L16.2669373,6.91230403 C16.1411674,6.91230403 16.0391237,6.81026036 16.0391237,6.68449048 C16.0391237,6.5587206 16.1411674,6.45667693 16.2669373,6.45667693 L17.6338711,6.45667693 C17.759641,6.45667693 17.8616846,6.5587206 17.8616846,6.68449048 C17.8616846,6.81026036 17.7600609,6.91230403 17.6338711,6.91230403 Z" id="Path"></path>
                    </g>
                    <circle id="Oval" fill="#ECEFF1" cx="2.95634448" cy="7.06237752" r="1"></circle>
                    <path d="M2.95634448,8.20144527 C2.32849244,8.20144527 1.81727674,7.69022956 1.81727674,7.06237752 C1.81727674,6.43452548 2.32849244,5.92330977 2.95634448,5.92330977 C3.58419653,5.92330977 4.09541223,6.43452548 4.09541223,7.06237752 C4.09541223,7.69022956 3.58466895,8.20144527 2.95634448,8.20144527 Z M2.95634448,6.37888438 C2.57950728,6.37888438 2.27290384,6.68554031 2.27290384,7.06232503 C2.27290384,7.43910974 2.57955977,7.74576568 2.95634448,7.74576568 C3.3331292,7.74576568 3.63978513,7.43910974 3.63978513,7.06232503 C3.63978513,6.68554031 3.33318169,6.37888438 2.95634448,6.37888438 Z" id="Shape" fill="#37474F"></path>
                </g>
                <g id="Group-31" transform="translate(28.500000, 22.000000)" stroke="#37474F" stroke-width="0.8">
                    <circle id="Oval" fill="#40C4FF" cx="10.125" cy="14.625" r="2.975"></circle>
                    <circle id="Oval" fill="#40C4FF" cx="2.625" cy="7.875" r="2.225"></circle>
                    <circle id="Oval" fill="#40C4FF" cx="10.5" cy="2.25" r="1.85"></circle>
                    <line x1="4.875" y1="6.375" x2="8.75096256" y2="3.79102496" id="Line-5" stroke-linecap="square"></line>
                    <line x1="4.875" y1="9.375" x2="7.875" y2="12.375" id="Line-6" stroke-linecap="square"></line>
                </g>
                <g id="Group-14">
                    <circle id="Oval" fill="#FC7356" cx="5.5" cy="4.5" r="1.5"></circle>
                    <circle id="Oval" fill="#FFD700" cx="9.5" cy="4.5" r="1.5"></circle>
                    <circle id="Oval" fill="#40C4FF" cx="13.5" cy="4.5" r="1.5"></circle>
                    <line x1="26.5" y1="4.5" x2="32.5" y2="4.5" id="Line-3" stroke="#37474F" stroke-width="0.8" stroke-linecap="round"></line>
                    <rect id="Rectangle" stroke="#37474F" stroke-width="0.8" x="0.4" y="0.4" width="35.2" height="33.2" rx="3"></rect>
                    <line x1="0.5" y1="8.5" x2="35.5" y2="8.5" id="Line" stroke="#37474F" stroke-width="0.8" stroke-linecap="square"></line>
                </g>
            </g>
        </g>
    </g>
</svg>