<?xml version="1.0" encoding="UTF-8"?>
<svg width="42px" height="41px" viewBox="0 0 42 41" version="1.1" xmlns="http://www.w3.org/2000/svg" xmlns:xlink="http://www.w3.org/1999/xlink">
    <title>CF9BFA47-A194-4977-B19A-60C91FFDFB82</title>
    <g id="Page-1" stroke="none" stroke-width="1" fill="none" fill-rule="evenodd">
        <g id="5.11_Locked-Price_icons" transform="translate(-874.000000, -608.000000)">
            <g id="Fintech" transform="translate(874.000000, 608.000000)">
                <path d="M40.1707401,17.4631164 C40.1707401,21.035261 37.2750639,23.9309372 33.7029193,23.9309372 C30.1307746,23.9309372 27.2350984,21.035261 27.2350984,17.4631164 C27.2350984,13.8909717 30.1307746,10.9952955 33.7029193,10.9952955 C37.2750639,10.9952955 40.1707401,13.8909717 40.1707401,17.4631164 Z" id="Path" fill="#FFD740" fill-rule="nonzero"></path>
                <g id="Group" transform="translate(1.000000, 0.323227)" fill="#37474F" fill-rule="nonzero">
                    <path d="M32.7029193,23.9311015 C28.9580258,23.9311015 25.9117074,20.8847831 25.9117074,17.1398896 C25.9117074,13.3949961 28.9580258,10.3486777 32.7029193,10.3486777 C36.4478128,10.3486777 39.4941312,13.3949961 39.4941312,17.1398896 C39.4941312,20.8847831 36.4478128,23.9311015 32.7029193,23.9311015 Z M32.7029193,10.9954598 C29.3152086,10.9954598 26.5584894,13.7521789 26.5584894,17.1398896 C26.5584894,20.5276003 29.3152086,23.2843195 32.7029193,23.2843195 C36.09063,23.2843195 38.8473491,20.5276003 38.8473491,17.1398896 C38.8473491,13.7521789 36.09063,10.9954598 32.7029193,10.9954598 Z" id="Shape"></path>
                    <path d="M32.7029193,22.3141463 C29.8498776,22.3141463 27.5286626,19.9929313 27.5286626,17.1398896 C27.5286626,14.286848 29.8498776,11.9656329 32.7029193,11.9656329 C35.5559609,11.9656329 37.877176,14.286848 37.877176,17.1398896 C37.877176,19.9929313 35.5559609,22.3141463 32.7029193,22.3141463 Z M32.7029193,12.612415 C30.2064289,12.612415 28.1754447,14.6433992 28.1754447,17.1398896 C28.1754447,19.63638 30.2064289,21.6673642 32.7029193,21.6673642 C35.1994097,21.6673642 37.2303939,19.63638 37.2303939,17.1398896 C37.2303939,14.6433992 35.1994097,12.612415 32.7029193,12.612415 Z" id="Shape"></path>
                    <path d="M32.7029193,13.9059792 C32.8813528,13.9059792 33.0263103,14.0509367 33.0263103,14.2293702 L33.0259641,14.8759792 L33.6730924,14.8761523 C33.8515259,14.8761523 33.9964835,15.0211099 33.9964835,15.1995434 C33.9964835,15.3779769 33.8515259,15.5229344 33.6730924,15.5229344 L32.3795282,15.5229344 C32.0232928,15.5229344 31.7327461,15.8134811 31.7327461,16.1697165 C31.7327461,16.5259519 32.0232928,16.8164986 32.3795282,16.8164986 L33.0263103,16.8164986 C33.7397287,16.8164986 34.3198745,17.3966444 34.3198745,18.1100628 C34.3198745,18.8234811 33.7397287,19.4036269 33.0263103,19.4036269 L33.0263103,20.050409 C33.0263103,20.2288425 32.8813528,20.3738001 32.7029193,20.3738001 C32.5244858,20.3738001 32.3795282,20.2288425 32.3795282,20.050409 L32.3789641,19.4029792 L31.4093551,19.4036269 C31.2309216,19.4036269 31.0859641,19.2586694 31.0859641,19.0802359 C31.0859641,18.9018024 31.2309216,18.7568448 31.4093551,18.7568448 L33.0263103,18.7568448 C33.3825458,18.7568448 33.6730924,18.4662982 33.6730924,18.1100628 C33.6730924,17.7538273 33.3825458,17.4632807 33.0263103,17.4632807 L32.3795282,17.4632807 C31.6661099,17.4632807 31.0859641,16.8831348 31.0859641,16.1697165 C31.0859641,15.4562982 31.6661099,14.8761523 32.3795282,14.8761523 L32.3795282,14.2293702 C32.3795282,14.0509367 32.5244858,13.9059792 32.7029193,13.9059792 Z" id="Combined-Shape"></path>
                    <path d="M10.3889373,39.4538716 L1.98077014,39.4538716 C0.911116348,39.4538716 0.0404238804,38.5831792 0.0404238804,37.5135254 L0.0404238804,29.1053582 C0.0404238804,28.0357044 0.911116348,27.165012 1.98077014,27.165012 L10.3889373,27.165012 C11.4585911,27.165012 12.3292835,28.0357044 12.3292835,29.1053582 L12.3292835,37.5135254 C12.3292835,38.5831792 11.4585911,39.4538716 10.3889373,39.4538716 Z M1.98077014,27.8117941 C1.26735179,27.8117941 0.687205968,28.3919399 0.687205968,29.1053582 L0.687205968,37.5135254 C0.687205968,38.2269437 1.26735179,38.8070895 1.98077014,38.8070895 L10.3889373,38.8070895 C11.1023556,38.8070895 11.6825014,38.2269437 11.6825014,37.5135254 L11.6825014,29.1053582 C11.6825014,28.3919399 11.1023556,27.8117941 10.3889373,27.8117941 L1.98077014,27.8117941 Z" id="Shape"></path>
                    <path d="M2.95094327,31.3690955 C2.77250976,31.3690955 2.62755223,31.224138 2.62755223,31.0457045 L2.62755223,29.1053582 C2.62755223,28.9269247 2.77250976,28.7819672 2.95094327,28.7819672 C3.12937679,28.7819672 3.27433432,28.9269247 3.27433432,29.1053582 L3.27433432,31.0457045 C3.27433432,31.224138 3.12937679,31.3690955 2.95094327,31.3690955 Z" id="Path"></path>
                    <path d="M9.41876414,31.3690955 C9.24033063,31.3690955 9.0953731,31.224138 9.0953731,31.0457045 L9.0953731,29.1053582 C9.0953731,28.9269247 9.24033063,28.7819672 9.41876414,28.7819672 C9.59719766,28.7819672 9.74215519,28.9269247 9.74215519,29.1053582 L9.74215519,31.0457045 C9.74215519,31.224138 9.59719766,31.3690955 9.41876414,31.3690955 Z" id="Path"></path>
                    <path d="M6.18485371,34.603006 C6.00642019,34.603006 5.86146266,34.4580485 5.86146266,34.2796149 L5.86146266,32.3392687 C5.86146266,32.1608352 6.00642019,32.0158776 6.18485371,32.0158776 C6.36328722,32.0158776 6.50824475,32.1608352 6.50824475,32.3392687 L6.50824475,34.2796149 C6.50824475,34.4580485 6.36328722,34.603006 6.18485371,34.603006 Z" id="Path"></path>
                    <path d="M9.41876414,34.603006 C9.24033063,34.603006 9.0953731,34.4580485 9.0953731,34.2796149 L9.0953731,32.3392687 C9.0953731,32.1608352 9.24033063,32.0158776 9.41876414,32.0158776 C9.59719766,32.0158776 9.74215519,32.1608352 9.74215519,32.3392687 L9.74215519,34.2796149 C9.74215519,34.4580485 9.59719766,34.603006 9.41876414,34.603006 Z" id="Path"></path>
                    <path d="M6.18485371,31.3690955 C5.64986887,31.3690955 5.21468058,30.9339072 5.21468058,30.3989224 L5.21468058,29.7521403 C5.21468058,29.2171555 5.64986887,28.7819672 6.18485371,28.7819672 C6.71983854,28.7819672 7.15502684,29.2171555 7.15502684,29.7521403 L7.15502684,30.3989224 C7.15502684,30.9339072 6.71983854,31.3690955 6.18485371,31.3690955 Z M6.18485371,29.4287493 C6.00642019,29.4287493 5.86146266,29.5737068 5.86146266,29.7521403 L5.86146266,30.3989224 C5.86146266,30.5773559 6.00642019,30.7223135 6.18485371,30.7223135 C6.36328722,30.7223135 6.50824475,30.5773559 6.50824475,30.3989224 L6.50824475,29.7521403 C6.50824475,29.5737068 6.36328722,29.4287493 6.18485371,29.4287493 Z" id="Shape"></path>
                    <path d="M2.95094327,34.603006 C2.41595844,34.603006 1.98077014,34.1678177 1.98077014,33.6328329 L1.98077014,32.9860508 C1.98077014,32.4510659 2.41595844,32.0158776 2.95094327,32.0158776 C3.48592811,32.0158776 3.9211164,32.4510659 3.9211164,32.9860508 L3.9211164,33.6328329 C3.9211164,34.1678177 3.48592811,34.603006 2.95094327,34.603006 Z M2.95094327,32.6626597 C2.77250976,32.6626597 2.62755223,32.8076173 2.62755223,32.9860508 L2.62755223,33.6328329 C2.62755223,33.8112664 2.77250976,33.9562239 2.95094327,33.9562239 C3.12937679,33.9562239 3.27433432,33.8112664 3.27433432,33.6328329 L3.27433432,32.9860508 C3.27433432,32.8076173 3.12937679,32.6626597 2.95094327,32.6626597 Z" id="Shape"></path>
                    <path d="M2.95094327,37.8369164 C2.41595844,37.8369164 1.98077014,37.4017281 1.98077014,36.8667433 L1.98077014,36.2199612 C1.98077014,35.6849764 2.41595844,35.2497881 2.95094327,35.2497881 C3.48592811,35.2497881 3.9211164,35.6849764 3.9211164,36.2199612 L3.9211164,36.8667433 C3.9211164,37.4017281 3.48592811,37.8369164 2.95094327,37.8369164 Z M2.95094327,35.8965702 C2.77250976,35.8965702 2.62755223,36.0415277 2.62755223,36.2199612 L2.62755223,36.8667433 C2.62755223,37.0451768 2.77250976,37.1901343 2.95094327,37.1901343 C3.12937679,37.1901343 3.27433432,37.0451768 3.27433432,36.8667433 L3.27433432,36.2199612 C3.27433432,36.0415277 3.12937679,35.8965702 2.95094327,35.8965702 Z" id="Shape"></path>
                    <path d="M6.18485371,37.8369164 C5.64986887,37.8369164 5.21468058,37.4017281 5.21468058,36.8667433 L5.21468058,36.2199612 C5.21468058,35.6849764 5.64986887,35.2497881 6.18485371,35.2497881 C6.71983854,35.2497881 7.15502684,35.6849764 7.15502684,36.2199612 L7.15502684,36.8667433 C7.15502684,37.4017281 6.71983854,37.8369164 6.18485371,37.8369164 Z M6.18485371,35.8965702 C6.00642019,35.8965702 5.86146266,36.0415277 5.86146266,36.2199612 L5.86146266,36.8667433 C5.86146266,37.0451768 6.00642019,37.1901343 6.18485371,37.1901343 C6.36328722,37.1901343 6.50824475,37.0451768 6.50824475,36.8667433 L6.50824475,36.2199612 C6.50824475,36.0415277 6.36328722,35.8965702 6.18485371,35.8965702 Z" id="Shape"></path>
                    <path d="M9.41876414,37.8369164 C8.88377931,37.8369164 8.44859101,37.4017281 8.44859101,36.8667433 L8.44859101,36.2199612 C8.44859101,35.6849764 8.88377931,35.2497881 9.41876414,35.2497881 C9.95374898,35.2497881 10.3889373,35.6849764 10.3889373,36.2199612 L10.3889373,36.8667433 C10.3889373,37.4017281 9.95374898,37.8369164 9.41876414,37.8369164 Z M9.41876414,35.8965702 C9.24033063,35.8965702 9.0953731,36.0415277 9.0953731,36.2199612 L9.0953731,36.8667433 C9.0953731,37.0451768 9.24033063,37.1901343 9.41876414,37.1901343 C9.59719766,37.1901343 9.74215519,37.0451768 9.74215519,36.8667433 L9.74215519,36.2199612 C9.74215519,36.0415277 9.59719766,35.8965702 9.41876414,35.8965702 Z" id="Shape"></path>
                    <path d="M2.95094327,22.6375374 C2.77250976,22.6375374 2.62755223,22.4925798 2.62755223,22.3141463 L2.62755223,21.6673642 C2.62755223,21.4889307 2.77250976,21.3439732 2.95094327,21.3439732 C3.12937679,21.3439732 3.27433432,21.4889307 3.27433432,21.6673642 L3.27433432,22.3141463 C3.27433432,22.4925798 3.12937679,22.6375374 2.95094327,22.6375374 Z" id="Path"></path>
                    <path d="M2.95094327,20.6971911 C2.77250976,20.6971911 2.62755223,20.5522336 2.62755223,20.3738001 L2.62755223,11.3188508 C2.62755223,11.1404173 2.77250976,10.9954598 2.95094327,10.9954598 C3.12937679,10.9954598 3.27433432,11.1404173 3.27433432,11.3188508 L3.27433432,20.3738001 C3.27433432,20.5522336 3.12937679,20.6971911 2.95094327,20.6971911 Z" id="Path"></path>
                    <path d="M35.9368297,27.165012 C35.7583962,27.165012 35.6134387,27.0200545 35.6134387,26.8416209 L35.6134387,26.1948389 C35.6134387,26.0164053 35.7583962,25.8714478 35.9368297,25.8714478 C36.1152632,25.8714478 36.2602208,26.0164053 36.2602208,26.1948389 L36.2602208,26.8416209 C36.2602208,27.0200545 36.1152632,27.165012 35.9368297,27.165012 Z" id="Path"></path>
                    <path d="M35.9368297,37.5135254 C35.7583962,37.5135254 35.6134387,37.3685678 35.6134387,37.1901343 L35.6134387,28.1351851 C35.6134387,27.9567516 35.7583962,27.8117941 35.9368297,27.8117941 C36.1152632,27.8117941 36.2602208,27.9567516 36.2602208,28.1351851 L36.2602208,37.1901343 C36.2602208,37.3685678 36.1152632,37.5135254 35.9368297,37.5135254 Z" id="Path"></path>
                    <path d="M12.3292835,6.79137624 L6.18485371,6.79137624 C6.05410768,6.79137624 5.93599419,6.71242339 5.88609601,6.59146754 C5.83556616,6.47051169 5.86335757,6.3315546 5.95589034,6.23902183 L12.1003202,0.0945920031 C12.1934845,0.00142757098 12.33181,-0.0257321833 12.4527659,0.0247976673 C12.5737217,0.0746958543 12.6526746,0.19280934 12.6526746,0.323555368 L12.6526746,6.4679852 C12.6526746,6.64641871 12.507717,6.79137624 12.3292835,6.79137624 Z M6.9655399,6.14459415 L12.0058925,6.14459415 L12.0058925,1.10424156 L6.9655399,6.14459415 Z" id="Shape"></path>
                </g>
                <path d="M14.2994567,12.9356417 L11.7123283,12.9356417 C11.3554613,12.9356417 11.0655462,12.6457267 11.0655462,12.2888597 L11.0655462,9.70173131 C11.0655462,9.34486428 11.3554613,9.05494922 11.7123283,9.05494922 L14.2994567,9.05494922 C14.6563237,9.05494922 14.9462388,9.34486428 14.9462388,9.70173131 L14.9462388,12.2888597 C14.9462388,12.6457267 14.6563237,12.9356417 14.2994567,12.9356417 Z" id="Path" fill="#40C4FF" fill-rule="nonzero"></path>
                <path d="M14.2994567,13.2590328 L11.7123283,13.2590328 C11.1773435,13.2590328 10.7421552,12.8238445 10.7421552,12.2888597 L10.7421552,9.70173131 C10.7421552,9.16674647 11.1773435,8.73155818 11.7123283,8.73155818 L14.2994567,8.73155818 C14.8344415,8.73155818 15.2696298,9.16674647 15.2696298,9.70173131 L15.2696298,12.2888597 C15.2696298,12.8238445 14.8344415,13.2590328 14.2994567,13.2590328 Z M11.7123283,9.37834026 C11.5338948,9.37834026 11.3889373,9.52329779 11.3889373,9.70173131 L11.3889373,12.2888597 C11.3889373,12.4672932 11.5338948,12.6122507 11.7123283,12.6122507 L14.2994567,12.6122507 C14.4778902,12.6122507 14.6228477,12.4672932 14.6228477,12.2888597 L14.6228477,9.70173131 C14.6228477,9.52329779 14.4778902,9.37834026 14.2994567,9.37834026 L11.7123283,9.37834026 Z" id="Shape" fill="#37474F" fill-rule="nonzero"></path>
                <path d="M28.3132791,11.3186865 L18.6115478,11.3186865 C18.4331142,11.3186865 18.2881568,11.173729 18.2881568,10.9952955 C18.2881568,10.816862 18.4331142,10.6719044 18.6115478,10.6719044 L28.3132791,10.6719044 C28.4917126,10.6719044 28.6366702,10.816862 28.6366702,10.9952955 C28.6366702,11.173729 28.4917126,11.3186865 28.3132791,11.3186865 Z" id="Path" fill="#37474F" fill-rule="nonzero"></path>
                <path d="M14.2994567,19.4034626 L11.7123283,19.4034626 C11.3554613,19.4034626 11.0655462,19.1135476 11.0655462,18.7566805 L11.0655462,16.1695522 C11.0655462,15.8126851 11.3554613,15.5227701 11.7123283,15.5227701 L14.2994567,15.5227701 C14.6563237,15.5227701 14.9462388,15.8126851 14.9462388,16.1695522 L14.9462388,18.7566805 C14.9462388,19.1135476 14.6563237,19.4034626 14.2994567,19.4034626 Z" id="Path" fill="#40C4FF" fill-rule="nonzero"></path>
                <path d="M14.2994567,19.7268537 L11.7123283,19.7268537 C11.1773435,19.7268537 10.7421552,19.2916654 10.7421552,18.7566805 L10.7421552,16.1695522 C10.7421552,15.6345673 11.1773435,15.199379 11.7123283,15.199379 L14.2994567,15.199379 C14.8344415,15.199379 15.2696298,15.6345673 15.2696298,16.1695522 L15.2696298,18.7566805 C15.2696298,19.2916654 14.8344415,19.7268537 14.2994567,19.7268537 Z M11.7123283,15.8461611 C11.5338948,15.8461611 11.3889373,15.9911187 11.3889373,16.1695522 L11.3889373,18.7566805 C11.3889373,18.935114 11.5338948,19.0800716 11.7123283,19.0800716 L14.2994567,19.0800716 C14.4778902,19.0800716 14.6228477,18.935114 14.6228477,18.7566805 L14.6228477,16.1695522 C14.6228477,15.9911187 14.4778902,15.8461611 14.2994567,15.8461611 L11.7123283,15.8461611 Z" id="Shape" fill="#37474F" fill-rule="nonzero"></path>
                <path d="M25.9415342,17.7865074 L18.6115478,17.7865074 C18.4331142,17.7865074 18.2881568,17.6415499 18.2881568,17.4631164 C18.2881568,17.2846828 18.4331142,17.1397253 18.6115478,17.1397253 L25.9415342,17.1397253 C26.1199677,17.1397253 26.2649253,17.2846828 26.2649253,17.4631164 C26.2649253,17.6415499 26.1199677,17.7865074 25.9415342,17.7865074 Z" id="Path" fill="#37474F" fill-rule="nonzero"></path>
                <path d="M14.2994567,25.8712835 L11.7123283,25.8712835 C11.3554613,25.8712835 11.0655462,25.5813684 11.0655462,25.2245014 L11.0655462,22.637373 C11.0655462,22.280506 11.3554613,21.990591 11.7123283,21.990591 L14.2994567,21.990591 C14.6563237,21.990591 14.9462388,22.280506 14.9462388,22.637373 L14.9462388,25.2245014 C14.9462388,25.5813684 14.6563237,25.8712835 14.2994567,25.8712835 Z" id="Path" fill="#40C4FF" fill-rule="nonzero"></path>
                <path d="M14.2994567,26.1946745 L11.7123283,26.1946745 C11.1773435,26.1946745 10.7421552,25.7594862 10.7421552,25.2245014 L10.7421552,22.637373 C10.7421552,22.1023882 11.1773435,21.6671999 11.7123283,21.6671999 L14.2994567,21.6671999 C14.8344415,21.6671999 15.2696298,22.1023882 15.2696298,22.637373 L15.2696298,25.2245014 C15.2696298,25.7594862 14.8344415,26.1946745 14.2994567,26.1946745 Z M11.7123283,22.313982 C11.5338948,22.313982 11.3889373,22.4589395 11.3889373,22.637373 L11.3889373,25.2245014 C11.3889373,25.4029349 11.5338948,25.5478924 11.7123283,25.5478924 L14.2994567,25.5478924 C14.4778902,25.5478924 14.6228477,25.4029349 14.6228477,25.2245014 L14.6228477,22.637373 C14.6228477,22.4589395 14.4778902,22.313982 14.2994567,22.313982 L11.7123283,22.313982 Z" id="Shape" fill="#37474F" fill-rule="nonzero"></path>
                <path d="M28.3132791,24.2543283 L18.6115478,24.2543283 C18.4331142,24.2543283 18.2881568,24.1093707 18.2881568,23.9309372 C18.2881568,23.7525037 18.4331142,23.6075462 18.6115478,23.6075462 L28.3132791,23.6075462 C28.4917126,23.6075462 28.6366702,23.7525037 28.6366702,23.9309372 C28.6366702,24.1093707 28.4917126,24.2543283 28.3132791,24.2543283 Z" id="Path" fill="#37474F" fill-rule="nonzero"></path>
                <path d="M32.0859641,35.8964058 L14.2994567,35.8964058 C14.1210232,35.8964058 13.9760656,35.7514483 13.9760656,35.5730148 C13.9760656,35.3945813 14.1210232,35.2496237 14.2994567,35.2496237 L32.0859641,35.2496237 C32.7993824,35.2496237 33.3795282,34.6694779 33.3795282,33.9560596 L33.3795282,25.2245014 C33.3795282,25.0460679 33.5244858,24.9011104 33.7029193,24.9011104 C33.8813528,24.9011104 34.0263103,25.0460679 34.0263103,25.2245014 L34.0263103,33.9560596 C34.0263103,35.0257134 33.1556179,35.8964058 32.0859641,35.8964058 Z" id="Path" fill="#37474F" fill-rule="nonzero"></path>
                <path d="M7.18485371,26.8414566 C7.00642019,26.8414566 6.86146266,26.6964991 6.86146266,26.5180656 L6.86146266,6.79121191 C6.86146266,6.70531117 6.8958861,6.62320016 6.95589034,6.56224855 L13.1003202,0.417818722 C13.1612718,0.357814484 13.2433828,0.323391044 13.3292835,0.323391044 L32.0859641,0.323391044 C33.1556179,0.323391044 34.0263103,1.19408351 34.0263103,2.2637373 L34.0263103,9.70173131 C34.0263103,9.88016482 33.8813528,10.0251223 33.7029193,10.0251223 C33.5244858,10.0251223 33.3795282,9.88016482 33.3795282,9.70173131 L33.3795282,2.2637373 C33.3795282,1.55031896 32.7993824,0.970173131 32.0859641,0.970173131 L13.4631876,0.970173131 L7.50824475,6.92511602 L7.50824475,26.5180656 C7.50824475,26.6964991 7.36328722,26.8414566 7.18485371,26.8414566 Z" id="Path" fill="#37474F" fill-rule="nonzero"></path>
                <path d="M8.47841788,1.94034626 L5.89128953,1.94034626 C5.71285602,1.94034626 5.56789849,1.79538873 5.56789849,1.61695522 C5.56789849,1.4385217 5.71285602,1.29356417 5.89128953,1.29356417 L8.47841788,1.29356417 C8.6568514,1.29356417 8.80180893,1.4385217 8.80180893,1.61695522 C8.80180893,1.79538873 8.6568514,1.94034626 8.47841788,1.94034626 Z" id="Path" fill="#37474F" fill-rule="nonzero"></path>
                <path d="M7.18485371,3.23391044 C7.00642019,3.23391044 6.86146266,3.08895291 6.86146266,2.91051939 L6.86146266,0.323391044 C6.86146266,0.144957529 7.00642019,0 7.18485371,0 C7.36328722,0 7.50824475,0.144957529 7.50824475,0.323391044 L7.50824475,2.91051939 C7.50824475,3.08895291 7.36328722,3.23391044 7.18485371,3.23391044 Z" id="Path" fill="#37474F" fill-rule="nonzero"></path>
                <path d="M3.95094327,6.14442983 L1.36381492,6.14442983 C1.18538141,6.14442983 1.04042388,5.9994723 1.04042388,5.82103878 C1.04042388,5.64260527 1.18538141,5.49764774 1.36381492,5.49764774 L3.95094327,5.49764774 C4.12937679,5.49764774 4.27433432,5.64260527 4.27433432,5.82103878 C4.27433432,5.9994723 4.12937679,6.14442983 3.95094327,6.14442983 Z" id="Path" fill="#37474F" fill-rule="nonzero"></path>
                <path d="M2.6573791,7.437994 C2.47894558,7.437994 2.33398805,7.29303647 2.33398805,7.11460296 L2.33398805,4.52747461 C2.33398805,4.34904109 2.47894558,4.20408357 2.6573791,4.20408357 C2.83581261,4.20408357 2.98077014,4.34904109 2.98077014,4.52747461 L2.98077014,7.11460296 C2.98077014,7.29303647 2.83581261,7.437994 2.6573791,7.437994 Z" id="Path" fill="#37474F" fill-rule="nonzero"></path>
                <path d="M31.762573,6.14442983 C31.5841395,6.14442983 31.439182,5.9994723 31.439182,5.82103878 L31.439182,3.23391044 C31.439182,3.05547692 31.2942244,2.91051939 31.1157909,2.91051939 L28.5286626,2.91051939 C28.3502291,2.91051939 28.2052715,2.76556186 28.2052715,2.58712835 C28.2052715,2.40869483 28.3502291,2.2637373 28.5286626,2.2637373 L31.1157909,2.2637373 C31.6507758,2.2637373 32.0859641,2.6989256 32.0859641,3.23391044 L32.0859641,5.82103878 C32.0859641,5.9994723 31.9410065,6.14442983 31.762573,6.14442983 Z" id="Path" fill="#37474F" fill-rule="nonzero"></path>
                <rect id="Rectangle" x="0" y="0" width="42" height="40"></rect>
            </g>
        </g>
    </g>
</svg>