<?xml version="1.0" encoding="UTF-8"?>
<svg width="36px" height="60px" viewBox="0 0 36 60" version="1.1" xmlns="http://www.w3.org/2000/svg" xmlns:xlink="http://www.w3.org/1999/xlink">
    <title>FCECDA56-D25D-4D04-848F-9BF94FFDD86F</title>
    <g id="Estimate-my-app" stroke="none" stroke-width="1" fill="none" fill-rule="evenodd">
        <g id="3" transform="translate(-232.000000, -630.000000)">
            <g id="Group-14" transform="translate(150.000000, 597.000000)">
                <g id="IOS" transform="translate(82.000000, 33.000000)">
                    <g id="Mobile-App-Developme">
                        <path d="M0.0574486383,7.21371429 L33.7108511,7.21371429 L33.7108511,4.41362637 C33.7108511,2.75677212 32.3677054,1.41362637 30.7108511,1.41362637 L3.05744864,1.41362637 C1.40059439,1.41362637 0.0574486383,2.75677212 0.0574486383,4.41362637 L0.0574486383,7.21371429 L0.0574486383,7.21371429 Z" id="Fill-101" fill="#40C4FF"></path>
                        <path d="M3.05744864,55.8104615 L30.7108511,55.8104615 C32.3677054,55.8104615 33.7108511,54.4673158 33.7108511,52.8104615 L33.7108511,49.5743297 L33.7108511,49.5743297 L0.0574486383,49.5743297 L0.0574486383,52.8104615 C0.0574486383,54.4673158 1.40059439,55.8104615 3.05744864,55.8104615 Z" id="Fill-102" fill="#40C4FF"></path>
                        <path d="M4.70111255,56.2707692 L31.6534025,56.2707692 C33.3102567,56.2707692 34.6534025,54.9276235 34.6534025,53.2707692 L34.6534025,3.7032967 C34.6534025,2.04644245 33.3102567,0.703296703 31.6534025,0.703296703 L4.70111255,0.703296703 C3.0442583,0.703296703 1.70111255,2.04644245 1.70111255,3.7032967 L1.70111255,53.2707692 C1.70111255,54.9276235 3.0442583,56.2707692 4.70111255,56.2707692 Z M6,56.9740659 L30.3545151,56.9740659 C33.1159388,56.9740659 35.3545151,54.7354897 35.3545151,51.9740659 L35.3545151,5 C35.3545151,2.23857625 33.1159388,2.15726995e-15 30.3545151,0 L6,0 C3.23857625,-3.80913106e-16 1,2.23857625 1,5 L1,51.9740659 C1,54.7354897 3.23857625,56.9740659 6,56.9740659 Z" id="Fill-116" fill="#37474F"></path>
                        <path d="M1.6331991,5.63340659 L34.585489,5.63340659 L34.585489,4.7032967 C34.585489,2.4941577 32.794628,0.703296703 30.585489,0.703296703 L5.6331991,0.703296703 C3.4240601,0.703296703 1.6331991,2.4941577 1.6331991,4.7032967 L1.6331991,5.63340659 L1.6331991,5.63340659 Z M0.932086547,6.3367033 L35.2866016,6.3367033 L35.2866016,5 C35.2866016,2.23857625 33.0480253,1.05719325e-15 30.2866016,0 L5.93208655,0 C3.1706628,-3.80913106e-16 0.932086547,2.23857625 0.932086547,5 L0.932086547,6.3367033 L0.932086547,6.3367033 Z" id="Fill-117" fill="#37474F"></path>
                        <path d="M5.6331991,56.2707692 L30.585489,56.2707692 C32.794628,56.2707692 34.585489,54.4799082 34.585489,52.2707692 L34.585489,48.677978 L34.585489,48.677978 L1.6331991,48.677978 L1.6331991,52.2707692 C1.6331991,54.4799082 3.4240601,56.2707692 5.6331991,56.2707692 Z M5.93208655,56.9740659 L30.2866016,56.9740659 C33.0480253,56.9740659 35.2866016,54.7354897 35.2866016,51.9740659 L35.2866016,47.9746813 L35.2866016,47.9746813 L0.932086547,47.9746813 L0.932086547,51.9740659 C0.932086547,54.7354897 3.1706628,56.9740659 5.93208655,56.9740659 Z" id="Fill-118" fill="#37474F"></path>
                        <polygon id="Fill-119" fill="#37474F" points="15.3048939 3.52 20.9137943 3.52 20.9137943 2.8167033 15.3048939 2.8167033"></polygon>
                        <path d="M14.5610539,37.3696703 L21.6576343,37.3696703 C21.8518443,37.3696703 22.0092826,37.212232 22.0092826,37.018022 C22.0092826,36.823812 21.8518443,36.6663736 21.6576343,36.6663736 L14.5610539,36.6663736 C14.3668438,36.6663736 14.2094055,36.823812 14.2094055,37.018022 C14.2094055,37.212232 14.3668438,37.3696703 14.5610539,37.3696703 Z" id="Fill-132" fill="#37474F"></path>
                        <path d="M12.7206334,52.826022 L23.4980547,52.826022 C23.6922648,52.826022 23.8497031,52.6685836 23.8497031,52.4743736 C23.8497031,52.2801636 23.6922648,52.1227253 23.4980547,52.1227253 L12.7206334,52.1227253 C12.5264234,52.1227253 12.3689851,52.2801636 12.3689851,52.4743736 C12.3689851,52.6685836 12.5264234,52.826022 12.7206334,52.826022 Z" id="Fill-133" fill="#37474F"></path>
                        <path d="M14.5610539,39.8751648 L21.6576343,39.8751648 C21.8518443,39.8751648 22.0092826,39.7177265 22.0092826,39.5235165 C22.0092826,39.3293065 21.8518443,39.1718681 21.6576343,39.1718681 L14.5610539,39.1718681 C14.3668438,39.1718681 14.2094055,39.3293065 14.2094055,39.5235165 C14.2094055,39.7177265 14.3668438,39.8751648 14.5610539,39.8751648 Z" id="Fill-134" fill="#37474F"></path>
                        <polygon id="Fill-135" fill="#FFD740" points="10.8353013 44.9740659 15.2610743 44.9740659 15.2610743 42.5125275 10.8353013 42.5125275"></polygon>
                        <polygon id="Fill-136" fill="#FFFFFE" points="20.9137943 44.9740659 25.3395673 44.9740659 25.3395673 42.5125275 20.9137943 42.5125275"></polygon>
                    </g>
                    <path d="M22.4228868,24.0268011 C22.4035497,22.1136474 24.0057754,21.1961208 24.0773466,21.1505351 C23.1770937,19.8520065 21.7747047,19.674119 21.2749633,19.6535538 C20.0814808,19.5344409 18.9461893,20.3461614 18.340483,20.3461614 C17.7363032,20.3461614 16.8016267,19.6711685 15.8118124,19.6889012 C14.5109582,19.7079616 13.311489,20.4344708 12.6416649,21.5828469 C11.2901031,23.8945878 12.2955427,27.3192689 13.6128605,29.1941247 C14.2565525,30.1118578 15.0241098,31.1425963 16.0318842,31.1057736 C17.0023614,31.0675938 17.3693473,30.4867818 18.5426545,30.4867818 C19.7159317,30.4867818 20.04577,31.1057736 21.0727618,31.0867722 C22.1170851,31.0676528 22.7787074,30.1514834 23.4179693,29.2309473 C24.1571496,28.1662778 24.4615144,27.1355099 24.4794745,27.0826068 C24.456276,27.072162 22.443062,26.3119577 22.4228868,24.0268011 Z M20.4931276,18.4123835 C21.0280111,17.7727379 21.3890402,16.8853068 21.2905587,16 C20.5200978,16.0309216 19.5861995,16.5058685 19.0334158,17.1440683 C18.5374161,17.7102162 18.1032293,18.6138162 18.2195812,19.4814198 C19.0796931,19.5475707 19.9576755,19.0505833 20.4931276,18.4123835 Z" id="Shape" fill="#37474F" fill-rule="nonzero"></path>
                </g>
            </g>
        </g>
    </g>
</svg>