<?xml version="1.0" encoding="UTF-8"?>
<svg width="36px" height="60px" viewBox="0 0 36 60" version="1.1" xmlns="http://www.w3.org/2000/svg" xmlns:xlink="http://www.w3.org/1999/xlink">
    <title>47E60CEC-76DE-47C3-A31C-5D519E3D04ED</title>
    <g id="Estimate-my-app" stroke="none" stroke-width="1" fill="none" fill-rule="evenodd">
        <g id="3" transform="translate(-450.000000, -630.000000)">
            <g id="Group-14" transform="translate(150.000000, 597.000000)">
                <g id="Group-22" transform="translate(217.000000, 0.000000)">
                    <g id="Group-19" transform="translate(64.000000, 33.000000)">
                        <g id="Android" transform="translate(19.000000, 0.000000)">
                            <g id="Mobile-App-Developme">
                                <path d="M0.0574486383,7.21371429 L33.7108511,7.21371429 L33.7108511,4.41362637 C33.7108511,2.75677212 32.3677054,1.41362637 30.7108511,1.41362637 L3.05744864,1.41362637 C1.40059439,1.41362637 0.0574486383,2.75677212 0.0574486383,4.41362637 L0.0574486383,7.21371429 L0.0574486383,7.21371429 Z" id="Fill-101" fill="#40C4FF"></path>
                                <path d="M3.05744864,55.8104615 L30.7108511,55.8104615 C32.3677054,55.8104615 33.7108511,54.4673158 33.7108511,52.8104615 L33.7108511,49.5743297 L33.7108511,49.5743297 L0.0574486383,49.5743297 L0.0574486383,52.8104615 C0.0574486383,54.4673158 1.40059439,55.8104615 3.05744864,55.8104615 Z" id="Fill-102" fill="#40C4FF"></path>
                                <path d="M4.61539827,56.2707692 L31.5676882,56.2707692 C33.2245425,56.2707692 34.5676882,54.9276235 34.5676882,53.2707692 L34.5676882,3.7032967 C34.5676882,2.04644245 33.2245425,0.703296703 31.5676882,0.703296703 L4.61539827,0.703296703 C2.95854402,0.703296703 1.61539827,2.04644245 1.61539827,3.7032967 L1.61539827,53.2707692 C1.61539827,54.9276235 2.95854402,56.2707692 4.61539827,56.2707692 Z M5.91428571,56.9740659 L30.2688008,56.9740659 C33.0302245,56.9740659 35.2688008,54.7354897 35.2688008,51.9740659 L35.2688008,5 C35.2688008,2.23857625 33.0302245,2.15726995e-15 30.2688008,0 L5.91428571,0 C3.15286197,-3.80913106e-16 0.914285714,2.23857625 0.914285714,5 L0.914285714,51.9740659 C0.914285714,54.7354897 3.15286197,56.9740659 5.91428571,56.9740659 Z" id="Fill-116" fill="#37474F"></path>
                                <path d="M1.6331991,5.63340659 L34.585489,5.63340659 L34.585489,4.7032967 C34.585489,2.4941577 32.794628,0.703296703 30.585489,0.703296703 L5.6331991,0.703296703 C3.4240601,0.703296703 1.6331991,2.4941577 1.6331991,4.7032967 L1.6331991,5.63340659 L1.6331991,5.63340659 Z M0.932086547,6.3367033 L35.2866016,6.3367033 L35.2866016,5 C35.2866016,2.23857625 33.0480253,1.05719325e-15 30.2866016,0 L5.93208655,0 C3.1706628,-3.80913106e-16 0.932086547,2.23857625 0.932086547,5 L0.932086547,6.3367033 L0.932086547,6.3367033 Z" id="Fill-117" fill="#37474F"></path>
                                <path d="M5.6331991,56.2707692 L30.585489,56.2707692 C32.794628,56.2707692 34.585489,54.4799082 34.585489,52.2707692 L34.585489,48.677978 L34.585489,48.677978 L1.6331991,48.677978 L1.6331991,52.2707692 C1.6331991,54.4799082 3.4240601,56.2707692 5.6331991,56.2707692 Z M5.93208655,56.9740659 L30.2866016,56.9740659 C33.0480253,56.9740659 35.2866016,54.7354897 35.2866016,51.9740659 L35.2866016,47.9746813 L35.2866016,47.9746813 L0.932086547,47.9746813 L0.932086547,51.9740659 C0.932086547,54.7354897 3.1706628,56.9740659 5.93208655,56.9740659 Z" id="Fill-118" fill="#37474F"></path>
                                <polygon id="Fill-119" fill="#37474F" points="15.3048939 3.52 20.9137943 3.52 20.9137943 2.8167033 15.3048939 2.8167033"></polygon>
                                <path d="M14.5610539,37.3696703 L21.6576343,37.3696703 C21.8518443,37.3696703 22.0092826,37.212232 22.0092826,37.018022 C22.0092826,36.823812 21.8518443,36.6663736 21.6576343,36.6663736 L14.5610539,36.6663736 C14.3668438,36.6663736 14.2094055,36.823812 14.2094055,37.018022 C14.2094055,37.212232 14.3668438,37.3696703 14.5610539,37.3696703 Z" id="Fill-132" fill="#37474F"></path>
                                <path d="M12.7206334,52.826022 L23.4980547,52.826022 C23.6922648,52.826022 23.8497031,52.6685836 23.8497031,52.4743736 C23.8497031,52.2801636 23.6922648,52.1227253 23.4980547,52.1227253 L12.7206334,52.1227253 C12.5264234,52.1227253 12.3689851,52.2801636 12.3689851,52.4743736 C12.3689851,52.6685836 12.5264234,52.826022 12.7206334,52.826022 Z" id="Fill-133" fill="#37474F"></path>
                                <path d="M14.5610539,39.8751648 L21.6576343,39.8751648 C21.8518443,39.8751648 22.0092826,39.7177265 22.0092826,39.5235165 C22.0092826,39.3293065 21.8518443,39.1718681 21.6576343,39.1718681 L14.5610539,39.1718681 C14.3668438,39.1718681 14.2094055,39.3293065 14.2094055,39.5235165 C14.2094055,39.7177265 14.3668438,39.8751648 14.5610539,39.8751648 Z" id="Fill-134" fill="#37474F"></path>
                                <polygon id="Fill-135" fill="#FFD740" points="10.8353013 44.9740659 15.2610743 44.9740659 15.2610743 42.5125275 10.8353013 42.5125275"></polygon>
                                <polygon id="Fill-136" fill="#FFFFFE" points="20.9137943 44.9740659 25.3395673 44.9740659 25.3395673 42.5125275 20.9137943 42.5125275"></polygon>
                            </g>
                            <path d="M21.8986459,20.2669484 C22.0835535,20.2669484 22.2334785,20.4168338 22.2334785,20.6017413 L22.2334785,20.6017413 L22.2334785,27.5724227 C22.2334785,27.7573302 22.0835931,27.9072156 21.8986856,27.9072156 L21.8986856,27.9072156 L20.3961829,27.9072156 L20.3961829,30.2563585 C20.3961829,30.8014431 19.9543006,31.2432856 19.4092557,31.2432856 L19.4092557,31.2432856 L19.2941555,31.2366456 C18.803305,31.1796333 18.4223285,30.7624716 18.4223285,30.2563585 L18.4223285,30.2563585 L18.4223285,27.9072156 L17.0419473,27.9072156 L17.0419473,30.2563585 C17.0419473,30.8014431 16.600065,31.2432856 16.0550201,31.2432856 L16.0550201,31.2432856 L15.9399199,31.2366456 C15.4490694,31.1796333 15.0680929,30.7624716 15.0680929,30.2563585 L15.0680929,30.2563585 L15.0680929,27.9072156 L13.5861752,27.9072156 C13.4012676,27.9072156 13.2513822,27.7573302 13.2513822,27.5724227 L13.2513822,27.5724227 L13.2513822,20.6017413 C13.2513822,20.4168338 13.4012676,20.2669484 13.5861752,20.2669484 L13.5861752,20.2669484 Z M11.84407,20.2653222 L11.9591623,20.2719623 C12.4499812,20.3289746 12.8309604,20.7461362 12.8309972,21.2522494 L12.8309972,21.2522494 L12.8309972,25.260761 C12.8309972,25.8058456 12.389115,26.2476882 11.84407,26.2476882 L11.84407,26.2476882 L11.7289698,26.2410481 C11.2381194,26.1840358 10.8571429,25.7668742 10.8571429,25.260761 L10.8571429,25.260761 L10.8571429,21.2522494 C10.8571429,20.7071648 11.2990251,20.2653222 11.84407,20.2653222 L11.84407,20.2653222 Z M23.6407511,20.2653222 L23.7558513,20.2719623 C24.2467017,20.3289746 24.6276782,20.7461362 24.6276782,21.2522494 L24.6276782,21.2522494 L24.6276782,25.260761 C24.6276782,25.8058456 24.185796,26.2476882 23.6407511,26.2476882 L23.6407511,26.2476882 L23.5256508,26.2410481 C23.0348004,26.1840358 22.6538239,25.7668742 22.6538239,25.260761 L22.6538239,25.260761 L22.6538239,21.2522494 C22.6538239,20.7071648 23.0957061,20.2653222 23.6407511,20.2653222 L23.6407511,20.2653222 Z M20.3285579,14.9480999 C20.3757566,14.8629044 20.4829649,14.8320071 20.5683587,14.8793248 C20.6535542,14.9265234 20.6843324,15.0338903 20.6371338,15.1190858 L20.6371338,15.1190858 L19.9397048,16.3774646 C21.0508555,17.0036198 21.8697318,18.0875222 22.1395969,19.3737046 C22.1833052,19.5820131 22.024575,19.7780659 21.8117449,19.7780659 L21.8117449,19.7780659 L13.6534431,19.7780659 C13.4405734,19.7780659 13.2818432,19.5820131 13.3255912,19.3737046 C13.5954562,18.0874826 14.4143325,17.0036198 15.5254833,16.3774249 L15.5254833,16.3774249 L14.8280542,15.1190462 C14.7808556,15.0338507 14.8116339,14.9264837 14.8968294,14.8792851 C14.9819852,14.8320865 15.0893521,14.8628251 15.1365904,14.9480602 L15.1365904,14.9480602 L15.8392946,16.215958 C16.4148402,15.9488693 17.0562655,15.7996979 17.732594,15.7996979 C18.4088829,15.7996979 19.0503082,15.9488693 19.6258537,16.215958 L19.6258537,16.215958 Z M19.7875586,17.5233202 C19.5780205,17.5233202 19.4081848,17.6931956 19.4081848,17.902694 C19.4081848,18.1122321 19.5780602,18.2820678 19.7875586,18.2820678 C19.9970967,18.2820678 20.1669324,18.1121925 20.1669324,17.902694 C20.1669324,17.6931956 19.9970967,17.5233202 19.7875586,17.5233202 Z M15.6775501,17.5233202 C15.468012,17.5233202 15.2981763,17.6931956 15.2981763,17.902694 C15.2981763,18.1122321 15.4680517,18.2820678 15.6775501,18.2820678 C15.8870882,18.2820678 16.0569239,18.1121925 16.0569239,17.902694 C16.0569239,17.6931559 15.8870485,17.5233202 15.6775501,17.5233202 Z" id="Combined-Shape" fill="#37474F" fill-rule="nonzero"></path>
                        </g>
                    </g>
                </g>
            </g>
        </g>
    </g>
</svg>