<?xml version="1.0" encoding="UTF-8"?>
<svg width="88px" height="60px" viewBox="0 0 88 60" version="1.1" xmlns="http://www.w3.org/2000/svg" xmlns:xlink="http://www.w3.org/1999/xlink">
    <title>code</title>
    <g id="Page-1" stroke="none" stroke-width="1" fill="none" fill-rule="evenodd">
        <g id="3" transform="translate(-641.000000, -630.000000)">
            <g id="Group-14" transform="translate(150.000000, 597.000000)">
                <g id="Group-22" transform="translate(217.000000, 0.000000)">
                    <g id="Group-4" transform="translate(217.979841, 0.000000)">
                        <g id="code" transform="translate(57.000000, 33.000000)">
                            <rect id="BG" x="0" y="0" width="87" height="60"></rect>
                            <path d="M78.0465319,6.70017176 L78.0465319,49.4439658 L8.2685112,49.4439658 L8.2685112,6.70017176 C8.2685112,3.65207671 10.5495493,1.13347252 13.5016783,0.76974133 C13.7452842,0.738871062 13.9962723,0.721422784 14.2472604,0.721422784 L72.0677829,0.721422784 C75.3695503,0.721422784 78.0465319,3.39773338 78.0465319,6.70017176 Z" id="Path" fill="#D4FBFF" fill-rule="nonzero"></path>
                            <path d="M78.0465319,6.70017176 L78.0465319,49.4439658 L13.5016783,49.4439658 L13.5016783,0.76974133 C13.7452842,0.738871062 13.9962723,0.721422784 14.2472604,0.721422784 L72.0677829,0.721422784 C75.3695503,0.721422784 78.0465319,3.39773338 78.0465319,6.70017176 Z" id="Path" fill="#40C4DF" fill-rule="nonzero"></path>
                            <path d="M85.6258329,51.5290453 L85.6258329,53.1336238 C85.6258329,56.5904131 82.8260415,59.3942309 79.3692522,59.3942309 L6.94579112,59.3942309 C3.48900174,59.3942309 0.6885392,56.5904131 0.6885392,53.1336238 L0.6885392,51.5290453 C0.6885392,50.3781244 1.62336898,49.4439658 2.77428996,49.4439658 L83.5407533,49.4439658 C84.6916743,49.4439658 85.6258329,50.3781244 85.6258329,51.5290453 Z" id="Path" fill="#029CD9" fill-rule="nonzero"></path>
                            <path d="M85.7041266,51.0850795 L85.7041266,52.689658 C85.7041266,56.1464474 82.9043353,58.9502651 79.4475459,58.9502651 L12.2565807,58.9502651 C8.80046237,58.9502651 6,56.1464474 6,52.689658 L6,51.0850795 C6,49.9341586 6.93415856,49 8.08575058,49 L83.619047,49 C84.769968,49 85.7041266,49.9341586 85.7041266,51.0850795 Z" id="Path" fill="#40C4FF" fill-rule="nonzero"></path>
                            <path d="M74.3387546,6.15054825 L74.3387546,49.4439658 L11.9756175,49.4439658 L11.9756175,6.15054825 C11.9756175,5.2673926 12.6426819,4.53858795 13.5016783,4.44597731 C13.5634187,4.43591091 13.6285144,4.43255549 13.6936102,4.43255549 L72.6207619,4.43255549 C73.5690133,4.43255549 74.3387546,5.20162578 74.3387546,6.15054825 Z" id="Path" fill="#D8D6D7" fill-rule="nonzero"></path>
                            <path d="M74.5007857,6.39475083 L74.5007857,49.6881684 L17.3708157,49.6881684 L17.3708157,4.67675807 L72.782793,4.67675807 C73.7310444,4.67675807 74.5007857,5.44582835 74.5007857,6.39475083 Z" id="Path" fill="#FFFFFF" fill-rule="nonzero"></path>
                            <path d="M78.0465319,6.70017176 L78.0465319,49.4439658 L74.3387546,49.4439658 L74.3387546,6.15054825 C74.3387546,5.20162578 73.5690133,4.43255549 72.6207619,4.43255549 L13.6936102,4.43255549 C13.6285144,4.43255549 13.5634187,4.43591091 13.5016783,4.44597731 L13.5016783,0.76974133 C13.7452842,0.738871062 13.9962723,0.721422784 14.2472604,0.721422784 L72.0677829,0.721422784 C75.3695503,0.721422784 78.0465319,3.39773338 78.0465319,6.70017176 Z" id="Path" fill="#D4FBFF" fill-rule="nonzero"></path>
                            <g id="Group" fill="#37474F" fill-rule="nonzero" stroke="#37474F" stroke-width="0.3">
                                <path d="M72.0691252,0.370293143 C75.5603353,0.370293143 78.4010171,3.21058008 78.4010171,6.70151386 L78.4010171,6.70151386 L78.4010171,49.0908228 L83.5420956,49.0908228 C84.8865004,49.0908228 85.9809891,50.1849459 85.9809891,51.5290453 L85.9809891,51.5290453 L85.9809891,53.1349659 C85.9809891,56.7802898 83.0154451,59.7460318 79.3705944,59.7460318 L79.3705944,59.7460318 L6.94444886,59.7460318 C3.29959811,59.7460318 0.334054148,56.7802899 0.334054148,53.1349659 L0.334054148,53.1349659 L0.334054148,51.5290453 C0.334054148,50.1847017 1.42811585,49.0908228 2.77294769,49.0908228 L2.77294769,49.0908228 L7.9133551,49.0908228 L7.9133551,6.70151386 C7.9133551,3.21058008 10.754037,0.370293143 14.245247,0.370293143 L14.245247,0.370293143 Z M33.1383205,49.7971087 L2.77227664,49.7971087 C1.8167002,49.7971087 1.03966901,50.5741399 1.03966901,51.5297164 L1.03966901,51.5297164 L1.03966901,53.1356369 C1.03966901,56.3915979 3.68825742,59.0397459 6.94444886,59.0397459 L6.94444886,59.0397459 L79.3699234,59.0397459 C82.6259995,59.0397459 85.274032,56.3917132 85.274032,53.1356369 L85.274032,53.1356369 L85.274032,51.5297164 C85.274032,50.5741399 84.497001,49.7971087 83.5414246,49.7971087 L83.5414246,49.7971087 L53.1753805,49.7971087 L53.1753805,51.2002109 C53.1753805,53.1707362 51.5725777,54.773919 49.6023432,54.773919 L49.6023432,54.773919 L36.7120288,54.773919 C34.741649,54.773919 33.1383205,53.1705906 33.1383205,51.2002109 L33.1383205,51.2002109 L33.1383205,49.7971087 Z M52.4697657,49.7971087 L33.8452776,49.7971087 L33.8452776,51.2002109 C33.8452776,52.7817975 35.1308781,54.0676331 36.7120288,54.0676331 L36.7120288,54.0676331 L49.6023432,54.0676331 C51.1838297,54.0676331 52.4697657,52.781462 52.4697657,51.2002109 L52.4697657,51.2002109 L52.4697657,49.7971087 Z M72.0691252,1.07657906 L14.245247,1.07657906 C11.1427361,1.07657906 8.61964101,3.59923229 8.61964101,6.70151386 L8.61964101,6.70151386 L8.61964101,49.0908228 L11.6224745,49.0908228 L11.6224745,6.14920616 C11.6224745,5.00762351 12.5520276,4.07807044 13.6936102,4.07807044 L13.6936102,4.07807044 L72.6207619,4.07807044 C73.7623445,4.07807044 74.6918976,5.00762351 74.6918976,6.14920616 L74.6918976,6.14920616 L74.6918976,49.0908228 L77.6947312,49.0908228 L77.6947312,6.70151386 C77.6947312,3.59923229 75.1716362,1.07657906 72.0691252,1.07657906 L72.0691252,1.07657906 Z M72.6207619,4.78435635 L13.6936102,4.78435635 C12.9407033,4.78435635 12.3287604,5.39629914 12.3287604,6.14920616 L12.3287604,6.14920616 L12.3287604,49.0894807 L73.9856117,49.0894807 L73.9856117,6.14920616 C73.9856117,5.39629909 73.3736689,4.78435635 72.6207619,4.78435635 L72.6207619,4.78435635 Z" id="Combined-Shape"></path>
                            </g>
                        </g>
                    </g>
                </g>
            </g>
        </g>
    </g>
</svg>