<?xml version="1.0" encoding="UTF-8"?>
<svg width="77px" height="45px" viewBox="0 0 77 45" version="1.1" xmlns="http://www.w3.org/2000/svg" xmlns:xlink="http://www.w3.org/1999/xlink">
    <title>18897061-7E3E-47E4-8159-7EF267262A9A</title>
    <g id="Estimate-my-app" stroke="none" stroke-width="1" fill="none" fill-rule="evenodd">
        <g id="3" transform="translate(-866.000000, -638.000000)">
            <g id="Group-14" transform="translate(150.000000, 597.000000)">
                <g id="Group-22" transform="translate(217.000000, 0.000000)">
                    <g id="Group-21" transform="translate(499.000000, 41.000000)">
                        <g id="Mobile-App-Developme" transform="translate(38.500000, 22.500000) rotate(90.000000) translate(-38.500000, -22.500000) translate(16.000000, -16.000000)">
                            <path d="M0.0732092639,9.21752381 L42.9591835,9.21752381 L42.9591835,4.80630037 C42.9591835,3.14944612 41.6160378,1.80630037 39.9591835,1.80630037 L3.07320926,1.80630037 C1.41635501,1.80630037 0.0732092639,3.14944612 0.0732092639,4.80630037 L0.0732092639,9.21752381 L0.0732092639,9.21752381 Z" id="Fill-101" fill="#40C4FF"></path>
                            <path d="M3.07320926,71.3133675 L39.9591835,71.3133675 C41.6160378,71.3133675 42.9591835,69.9702218 42.9591835,68.3133675 L42.9591835,63.3449768 L42.9591835,63.3449768 L0.0732092639,63.3449768 L0.0732092639,68.3133675 C0.0732092639,69.9702218 1.41635501,71.3133675 3.07320926,71.3133675 Z" id="Fill-102" fill="#40C4FF"></path>
                            <path d="M5.0585713,71.9015385 L41.0510877,71.9015385 C42.707942,71.9015385 44.0510877,70.5583927 44.0510877,68.9015385 L44.0510877,3.8986569 C44.0510877,2.24180265 42.707942,0.898656899 41.0510877,0.898656899 L5.0585713,0.898656899 C3.40171705,0.898656899 2.0585713,2.24180265 2.0585713,3.8986569 L2.0585713,68.9015385 C2.0585713,70.5583927 3.40171705,71.9015385 5.0585713,71.9015385 Z M6.1651135,72.8001954 L39.9445455,72.8001954 C42.7059693,72.8001954 44.9445455,70.5616191 44.9445455,67.8001954 L44.9445455,5 C44.9445455,2.23857625 42.7059693,4.39800865e-15 39.9445455,0 L6.1651135,0 C3.40368975,5.07265313e-16 1.1651135,2.23857625 1.1651135,5 L1.1651135,67.8001954 C1.1651135,70.5616191 3.40368975,72.8001954 6.1651135,72.8001954 Z" id="Fill-116" fill="#37474F"></path>
                            <path d="M2.08125566,7.19824176 L44.0737721,7.19824176 L44.0737721,4.8986569 C44.0737721,2.6895179 42.2829111,0.898656899 40.0737721,0.898656899 L6.08125566,0.898656899 C3.87211666,0.898656899 2.08125566,2.6895179 2.08125566,4.8986569 L2.08125566,7.19824176 L2.08125566,7.19824176 Z M1.18779787,8.09689866 L44.9672299,8.09689866 L44.9672299,5 C44.9672299,2.23857625 42.7286537,3.50983023e-15 39.9672299,0 L6.18779787,0 C3.42637412,-3.80913106e-16 1.18779787,2.23857625 1.18779787,5 L1.18779787,8.09689866 L1.18779787,8.09689866 Z" id="Fill-117" fill="#37474F"></path>
                            <path d="M6.08125566,71.9015385 L40.0737721,71.9015385 C42.2829111,71.9015385 44.0737721,70.1106775 44.0737721,67.9015385 L44.0737721,62.1996386 L44.0737721,62.1996386 L2.08125566,62.1996386 L2.08125566,67.9015385 C2.08125566,70.1106775 3.87211666,71.9015385 6.08125566,71.9015385 Z M6.18779787,72.8001954 L39.9672299,72.8001954 C42.7286537,72.8001954 44.9672299,70.5616191 44.9672299,67.8001954 L44.9672299,61.3009817 L44.9672299,61.3009817 L1.18779787,61.3009817 L1.18779787,67.8001954 C1.18779787,70.5616191 3.42637412,72.8001954 6.18779787,72.8001954 Z" id="Fill-118" fill="#37474F"></path>
                            <polygon id="Fill-119" fill="#37474F" points="19.5036827 4.49777778 26.6513451 4.49777778 26.6513451 3.59912088 19.5036827 3.59912088"></polygon>
                            <path d="M18.5954646,47.6113376 L27.6365257,47.6113376 C27.8846829,47.6113376 28.0858541,47.4101664 28.0858541,47.1620091 C28.0858541,46.9138519 27.8846829,46.7126807 27.6365257,46.7126807 L18.5954646,46.7126807 C18.3473073,46.7126807 18.1461361,46.9138519 18.1461361,47.1620091 C18.1461361,47.4101664 18.3473073,47.6113376 18.5954646,47.6113376 Z" id="Fill-132" fill="#37474F" transform="translate(23.115995, 47.162009) rotate(90.000000) translate(-23.115995, -47.162009) "></path>
                            <path d="M16.2116566,67.499917 L29.9433711,67.499917 C30.1915284,67.499917 30.3926996,67.2987458 30.3926996,67.0505885 C30.3926996,66.8024313 30.1915284,66.6012601 29.9433711,66.6012601 L16.2116566,66.6012601 C15.9634994,66.6012601 15.7623282,66.8024313 15.7623282,67.0505885 C15.7623282,67.2987458 15.9634994,67.499917 16.2116566,67.499917 Z" id="Fill-133" fill="#37474F"></path>
                            <path d="M15.5954646,47.8128028 L24.6365257,47.8128028 C24.8846829,47.8128028 25.0858541,47.6116316 25.0858541,47.3634743 C25.0858541,47.1153171 24.8846829,46.9141459 24.6365257,46.9141459 L15.5954646,46.9141459 C15.3473073,46.9141459 15.1461361,47.1153171 15.1461361,47.3634743 C15.1461361,47.6116316 15.3473073,47.8128028 15.5954646,47.8128028 Z" id="Fill-134" fill="#37474F" transform="translate(20.115995, 47.363474) rotate(90.000000) translate(-20.115995, -47.363474) "></path>
                            <polygon id="Fill-135" fill="#FFD740" points="13.8078892 57.466862 19.4478416 57.466862 19.4478416 54.3215629 13.8078892 54.3215629"></polygon>
                            <polygon id="Fill-136" fill="#FFFFFE" points="26.6513451 57.466862 32.2912974 57.466862 32.2912974 54.3215629 26.6513451 54.3215629"></polygon>
                        </g>
                    </g>
                </g>
            </g>
        </g>
    </g>
</svg>